<svg xmlns="http://www.w3.org/2000/svg" xmlns:xlink="http://www.w3.org/1999/xlink">
    <polygon fill="currentColor" points="23.16 20.81 13.38 26.59 3.47 20.81 3.47 12.19 23.16 12.19 23.16 20.81"/>
    <g>
      <polygon points="113.04 3.6 105.77 18.97 98.5 3.6 91.53 3.6 103.27 28.4 108.27 28.4 120 3.6 113.04 3.6"/>
      <path d="M86.93,19A8.78,8.78,0,0,0,81.32,3.6H63.92V28.4H70.2V23l10.35-1.68,2.82,7.07h6.77l-3.61-9Zm-5.7-4.21v0l-11,1.8V10H81.32a2.39,2.39,0,0,1,2.37,2.4C83.69,13.54,83.13,14.48,81.23,14.79Z"/>
      <polygon points="45.92 18.97 38.65 3.6 31.69 3.6 43.42 28.4 48.42 28.4 60.16 3.6 53.2 3.6 45.92 18.97"/>
      <path d="M0,8.19V23.81l13.37,7.81,13.37-7.81V8.19L13.37.38ZM22.11,20.91,13.37,26,4.64,20.9V14.44l8.73,5.1,8.73-5.1Z"/>
    </g>
  </svg>