<svg xmlns="http://www.w3.org/2000/svg" xmlns:xlink="http://www.w3.org/1999/xlink">
  <svg id="horizontal" viewBox="0 0 120 32">
    <polygon fill="currentColor" points="23.16 20.81 13.38 26.59 3.47 20.81 3.47 12.19 23.16 12.19 23.16 20.81"/>
    <g>
      <polygon points="113.04 3.6 105.77 18.97 98.5 3.6 91.53 3.6 103.27 28.4 108.27 28.4 120 3.6 113.04 3.6"/>
      <path d="M86.93,19A8.78,8.78,0,0,0,81.32,3.6H63.92V28.4H70.2V23l10.35-1.68,2.82,7.07h6.77l-3.61-9Zm-5.7-4.21v0l-11,1.8V10H81.32a2.39,2.39,0,0,1,2.37,2.4C83.69,13.54,83.13,14.48,81.23,14.79Z"/>
      <polygon points="45.92 18.97 38.65 3.6 31.69 3.6 43.42 28.4 48.42 28.4 60.16 3.6 53.2 3.6 45.92 18.97"/>
      <path d="M0,8.19V23.81l13.37,7.81,13.37-7.81V8.19L13.37.38ZM22.11,20.91,13.37,26,4.64,20.9V14.44l8.73,5.1,8.73-5.1Z"/>
    </g>
  </svg>

  <svg id="icon" viewBox="0 0 26.75 32">
    <polygon fill="currentColor" points="23.16 20.81 13.38 26.59 3.47 20.81 3.47 12.19 23.16 12.19 23.16 20.81"/>
    <path d="M13.37.38,0,8.19V23.81l13.37,7.81,13.37-7.81V8.19ZM22.1,20.92,13.37,26,4.64,20.9V14.44l8.73,5.1,8.73-5.1Z"/>
  </svg>

  <svg id="vertical" viewBox="0 0 60 93.98">
    <polygon fill="currentColor" points="52.04 47.85 30.09 60.82 7.86 47.85 7.86 28.51 52.04 28.51 52.04 47.85"/>
    <path d="M30,0,0,17.52v35L30,70.1,60,52.57v-35ZM49.59,46.09,30,57.49,10.41,46V31.55L30,43,49.59,31.55Z"/>
    <g>
      <polygon points="60 77.38 52.05 93.98 48.28 93.98 40.33 77.38 45.81 77.38 50.17 86.49 54.52 77.38 60 77.38"/>
      <polygon points="19.67 77.38 11.72 93.98 7.95 93.98 0 77.38 5.47 77.38 9.83 86.49 14.19 77.38 19.67 77.38"/>
      <path d="M26.86,82.32h6.65a1.05,1.05,0,0,1,.17,2.09l-6.82,1.1ZM37.4,87.94a6,6,0,0,0-3.89-10.55H21.92V94h4.94V90.5l5.87-.94L34.51,94h5.32Z" transform="translate(0)"/>
    </g>
  </svg>
</svg>
